<svg width="424" height="300" viewBox="0 0 424 300" fill="none" xmlns="http://www.w3.org/2000/svg">
<path d="M221.674 74.2707C220.99 72.5552 220.698 70.353 220.48 68.5542C219.11 56.6363 216.41 45.4749 212.492 34.2155C209.725 26.267 226.807 21.4311 231.499 26.19C235.775 30.5254 236.578 42.4196 237.398 48.2373C240.251 49.7732 246.144 53.1996 249.134 53.2757C261.527 38.3244 284.981 29.2741 303.903 27.1346C330.169 24.1649 356.072 32.3689 376.349 49.0725C381.364 53.2039 399.803 69.7234 396.083 76.3871C392.785 79.2069 374.601 84.1189 368.908 86.5786C358.876 90.9122 337.165 100.741 326.852 99.9845C327.95 101.222 334.196 105.572 336.218 107.385C345.336 115.565 351.135 126.626 353.538 138.496C356.655 153.506 353.669 169.14 345.239 181.944C380.017 189.316 398.53 225.164 385.799 258.275C379.608 274.377 368.225 283.63 352.765 290.577C361.89 306.361 362.775 325.528 355.167 342.261C342.399 370.342 307.492 384.514 278.927 370.795C278.451 374.732 277.459 378.59 275.975 382.269C270.385 396.532 260.399 407.382 246.304 413.516C232.241 419.718 216.277 420.018 201.99 414.35C186.723 408.301 176.551 397.171 170.108 382.258C155.754 394.596 129.63 395.768 112.792 388.05C99.3103 382.008 88.831 370.789 83.7199 356.928C78.4093 342.53 78.4407 327.729 84.8462 313.731C66.4614 313.833 47.1354 301.297 38.1822 285.507C23.2851 259.235 30.8996 225.411 57.2745 209.786C61.3362 207.379 64.5156 206.002 68.8563 204.208C44.8969 170.135 62.6637 123.551 102.228 113.416C115.985 109.891 132.129 111.011 144.561 118.061C154.643 81.9463 185.668 64.8714 221.674 74.2707ZM257.452 107.443C262.887 102.62 268.292 98.9319 275.104 96.3917C276.251 95.9641 281.61 94.0187 282.2 93.7274C266.352 88.2752 257.833 76.5585 249.925 62.8195C248.825 62.3171 240.731 62.3597 238.571 62.1889C239.828 69.9242 239.918 75.9548 239.983 83.7478L240.213 84.0273C241.844 85.9981 244.194 88.1217 246.015 90.0751C251.317 95.764 254.106 100.551 257.452 107.443Z" fill="#4744D1"/>
<path d="M221.674 74.2707C220.99 72.5552 220.698 70.353 220.48 68.5541C219.11 56.6363 216.41 45.4749 212.492 34.2155C209.725 26.2669 226.807 21.4311 231.5 26.1899C235.775 30.5254 236.579 42.4196 237.398 48.2372C240.251 49.7732 246.144 53.1996 249.134 53.2757C261.527 38.3244 284.981 29.2741 303.903 27.1346C330.169 24.1648 356.072 32.3688 376.349 49.0724C381.364 53.2038 399.803 69.7234 396.083 76.3871C392.785 79.2069 374.601 84.1188 368.908 86.5786C358.876 90.9121 337.165 100.74 326.852 99.9845C308.846 91.0979 301.5 90.9118 282.2 93.7274C266.352 88.2751 257.833 76.5585 249.925 62.8195C248.825 62.317 240.731 62.3597 238.571 62.1888C239.828 69.9242 239.918 75.9548 239.983 83.7478C238.934 83.3548 233.748 80.1453 232.366 79.3104C228.414 76.9228 225.995 75.8971 221.674 74.2707Z" fill="#4D8C4B"/>
<path d="M221.674 74.2707C220.99 72.5552 220.698 70.353 220.48 68.5541C219.11 56.6363 216.41 45.4749 212.492 34.2155C209.725 26.2669 226.807 21.4311 231.5 26.1899C235.775 30.5254 236.579 42.4196 237.398 48.2372C240.251 49.7732 246.144 53.1996 249.134 53.2757C256.576 55.8578 288.352 59.6123 296.146 56.0904C300.384 54.1753 310.128 46.5213 316.826 47.6532C317.903 48.7882 317.572 48.2405 317.966 49.9088C316.927 53.4298 305.68 56.724 302.284 57.7498C309.595 58.5683 348.629 61.3033 350.151 68.802C348.461 71.8181 344.718 70.1635 341.919 69.3992C328.491 65.7338 315.203 64.8127 301.41 63.805C305.171 66.1538 315.493 73.6604 313.708 78.5326C309.052 81.0177 297.361 66.7572 294.004 63.7452C288.434 62.7894 253.292 60.4462 249.925 62.8195C248.825 62.317 240.731 62.3597 238.571 62.1888C239.828 69.9242 239.918 75.9548 239.983 83.7477C238.934 83.3548 233.748 80.1453 232.366 79.3104C228.414 76.9228 225.995 75.8971 221.674 74.2707Z" fill="#377643"/>
<path d="M189.409 78.0075C192.129 76.2069 204.927 76.5331 208.465 76.8147C224.235 78.0693 238.52 87.004 247.468 99.9158C250.453 104.223 251.929 111.782 255.909 115.28C256.665 115.842 259.785 112.76 260.639 112.011C265.892 107.472 271.157 103.167 277.722 100.633C322.154 83.4915 364.882 129.757 344.461 172.668C342.415 176.967 339.135 180.755 337.343 185.106C356.703 189.057 368.786 194.875 378.473 212.836C384.941 224.737 386.368 238.733 382.436 251.694C379.16 262.576 371.93 274.074 362.114 280.025C357.273 282.96 350.461 285.876 345.15 288.741C355.518 304.228 357.805 317.415 352.024 335.576C343.099 363.616 310.711 378.546 283.652 367.21C281.347 366.244 278.748 365.331 276.331 364.481C275.712 364.899 275.166 365.567 275.018 366.328C270.565 389.26 260.379 403.867 237.543 411.32C227.297 413.883 218.344 414.47 208.112 411.314C195.67 407.533 185.132 399.159 178.637 387.893C176.101 383.514 174.462 379.346 172.127 374.956C167.657 377.96 163.773 381.091 158.765 383.304C131.839 395.205 101.814 384.809 89.5715 357.896C84.3227 346.631 83.4204 333.824 87.0376 321.934C88.2977 317.908 90.2174 314.047 91.7213 310.02C84.117 308.222 78.1173 308.434 70.0701 305.674C28.1595 291.304 22.9787 231.894 63.3895 212.151C67.7334 210.029 72.2459 208.345 76.6183 206.286C71.4216 198.826 67.0147 192.675 64.6222 183.627C61.2111 170.727 63.0231 156.49 69.4081 144.857C76.4833 131.966 88.1348 121.946 102.524 118.274C119.647 113.905 133.041 117.056 147.959 125.665C150.669 116.584 153.565 105.825 159.027 98.1489C166.318 87.9044 176.862 80.1077 189.409 78.0075Z" fill="#4744D1"/>
</svg>
