<svg width="430" height="537" viewBox="0 0 430 537" fill="none" xmlns="http://www.w3.org/2000/svg">
<path d="M302.031 131.83L293.974 123.762" stroke="black" stroke-width="12" stroke-linecap="round"/>
<path d="M386.547 183.067L378.49 175" stroke="black" stroke-width="12" stroke-linecap="round"/>
<path d="M337.401 100.224L329.344 92.1561" stroke="black" stroke-width="12" stroke-linecap="round"/>
<path d="M380.45 87.4134L376.737 73.7672" stroke="black" stroke-width="12" stroke-linecap="round"/>
<path d="M255.885 139.963C258.971 141.958 262.716 144.053 265.911 145.933L283.507 156.267L339.871 189.144L382.654 214.052L394.62 220.966C396.799 222.228 398.981 223.537 401.205 224.717C403.889 226.142 407.286 225.208 408.925 222.641C409.491 221.76 409.811 220.745 409.852 219.7C409.998 216.57 409.85 212.188 409.845 208.955L409.89 190.145L409.661 122.258L409.294 73.375L409.177 59.1755C409.158 56.509 409.22 53.2884 409.041 50.6614C409.08 48.3769 409.143 42.6171 408.969 40.3638C409.138 37.934 409.158 33.1911 408.852 30.8185C407.988 24.1395 401.472 25.1605 396.522 25.3343C383.466 25.8191 370.492 27.6617 357.811 30.8339C308.058 43.1395 265.222 74.7361 238.797 118.62C237.47 120.794 235.546 123.64 236.238 126.278C237.252 130.142 243.618 132.871 246.951 134.8C249.902 136.567 252.88 138.288 255.885 139.963ZM377.287 72.5228C381.869 72.646 383.499 75.9355 383.222 80.1642C383.079 82.3469 382.254 88.5841 380.534 89.8102C378.194 89.0886 374.073 83.479 372.901 81.225C370.818 77.2115 372.594 73.0891 377.287 72.5228ZM377.179 171.087C381.28 169.81 384.045 171.714 385.162 175.644C385.77 177.783 386.668 184.48 385.668 186.33L385.082 186.738C380.416 184.973 369.557 178.193 375.586 172.162C375.992 171.756 376.674 171.38 377.179 171.087ZM329.177 88.9113C332.56 87.4688 335.531 88.7836 336.924 92.0256C337.934 94.3773 338.894 101.575 337.998 103.934C337.781 104.15 337.672 104.27 337.426 104.46C334.167 103.477 328.41 99.3765 326.789 96.4553C325.138 93.4815 326.381 90.6523 329.177 88.9113ZM291.51 121.768C294.259 119.489 297.607 118.934 300.116 122.066C302.33 124.83 303.843 129.971 304.257 133.46C304.293 133.903 303.896 134.184 303.63 134.434C297.905 133.541 286.14 129.45 291.51 121.768Z" fill="#E14445"/>
<path d="M255.885 139.963C278.626 99.6772 316.39 69.9715 360.923 57.3415C377.273 52.5961 392.073 50.7458 409.042 50.6616C409.08 48.3771 409.144 42.6173 408.969 40.364C409.138 37.9342 409.158 33.1913 408.852 30.8187C407.988 24.1397 401.473 25.1607 396.522 25.3345C383.466 25.8193 370.492 27.6619 357.811 30.8341C308.058 43.1398 265.223 74.7363 238.798 118.62C237.47 120.794 235.546 123.64 236.238 126.278C237.252 130.142 243.618 132.871 246.951 134.801C249.902 136.568 252.88 138.288 255.885 139.963Z" fill="#3A8A54"/>
<path d="M255.885 139.963C278.626 99.6771 316.39 69.9714 360.923 57.3414C377.273 52.596 392.073 50.7458 409.042 50.6615C409.08 48.3771 409.144 42.6172 408.969 40.3639C406.339 40.2871 402.645 40.4406 399.977 40.5549C388.629 41.0113 377.35 42.5576 366.293 45.1761C324.751 54.8959 287.804 78.6363 261.707 112.381C258.223 116.972 254.943 121.713 251.876 126.591C250.19 129.3 248.638 132.088 246.951 134.801C249.902 136.568 252.88 138.288 255.885 139.963Z" fill="#D0DEAC"/>
<ellipse cx="17.7799" cy="17.7799" rx="17.7799" ry="17.7799" transform="matrix(0.864112 -0.503299 -0.503299 -0.864112 328.364 182.604)" fill="white"/>
<ellipse cx="17.7799" cy="17.7799" rx="17.7799" ry="17.7799" transform="matrix(0.864112 -0.503299 -0.503299 -0.864112 377.167 154.179)" fill="white"/>
<path d="M343.728 173.655C351.91 168.89 354.872 158.599 350.643 150.262L319.969 168.128C325.134 175.92 335.546 178.421 343.728 173.655Z" fill="#D63E3E"/>
<path d="M392.531 145.23C400.713 140.465 403.675 130.174 399.446 121.837L368.772 139.703C373.937 147.495 384.349 149.996 392.531 145.23Z" fill="#D63E3E"/>
<path d="M328.99 148.35C334.48 145.152 340.951 146.028 343.443 150.306C344.085 151.408 344.397 152.628 344.418 153.887L326.194 164.502C325.109 163.863 324.202 162.989 323.56 161.887C321.068 157.609 323.499 151.548 328.99 148.35Z" fill="black"/>
<path d="M377.792 119.925C383.283 116.727 389.754 117.603 392.246 121.881C392.888 122.983 393.2 124.203 393.221 125.462L374.997 136.077C373.912 135.438 373.005 134.564 372.363 133.462C369.871 129.184 372.302 123.123 377.792 119.925Z" fill="black"/>
<path d="M356.24 123.678L342.839 130.988" stroke="black" stroke-width="4" stroke-linecap="round"/>
<path d="M350.59 364.318C352.634 360.623 345.284 363.99 348.31 360.834C349.917 359.171 348.693 365.733 350.59 364.318C352.722 362.716 347.95 363.22 348.31 360.834C349.212 355.024 321.604 337.242 334.423 347.33C325.961 352.792 332.547 340.577 330.417 349.71C330.417 349.71 334.665 347.593 334.423 347.33C324.308 336.351 341.386 352.118 325.718 349.567C321.796 349.185 325.41 348.894 321.847 350.295C320.439 350.848 315.824 350.287 316.322 351.368C319.393 358.031 299.022 345.207 304.453 350.459C302.121 349.908 299.772 349.144 297.471 348.73C289.616 347.317 281.601 348.436 274.954 351.873C268.13 355.367 263.346 361.156 261.655 367.964C261.117 370.139 260.779 374.275 261.296 376.48L261.13 376.7C259.616 376.771 257.081 376.844 255.692 377.034C249.189 377.933 243.373 380.776 239.23 385.082C234.005 390.47 231.931 396.802 232.865 404.023C233.787 410.879 237.754 417.303 243.913 421.914C245.11 422.801 246.387 423.601 247.731 424.304C242.582 429.198 240.031 434.474 240.59 441.4C241.086 447.982 244.59 454.269 250.319 458.859C253.314 461.264 255.981 462.413 259.539 464.031C255.859 467.414 253.908 472.646 254.222 477.424C254.551 482.352 257.098 487.079 261.314 490.583C263.634 492.484 268.026 494.852 271.092 495.303C270.25 500.125 271.325 504.814 274.747 508.983C277.836 512.691 282.431 515.264 287.518 516.129C292.641 517.014 298.201 516.126 302.35 513.632C304.793 512.164 307.722 509.323 308.594 506.812C313.844 508.926 320.823 508.977 325.893 507.048C333.999 503.962 338.447 497.018 337.729 489.217C345.502 491.5 353.475 491.645 360.638 488.518C367.119 485.709 371.897 480.712 373.919 474.627C374.787 471.951 375.048 469.534 374.475 466.734C383.212 467.833 390.61 466.69 397.534 462.111C403.308 458.292 407.631 451.534 408.268 445.088C408.869 438.405 406.38 431.636 401.346 426.259C400.132 424.956 398.893 423.863 397.482 422.729C402.378 417.906 405.354 411.41 404.671 404.716C403.859 397.265 399.674 390.232 393.042 385.173C389.873 382.721 387.459 381.474 383.747 379.934L382.773 377.966C386.072 378.395 378.116 381.25 377.113 376.87C376.28 373.234 375.722 376.445 371.761 373.994C360.605 367.091 363.564 362.615 350.59 364.318Z" fill="#752BA4"/>
<path d="M351.145 413.705C367.032 421.349 358.892 444.522 358.892 444.522C358.892 444.522 349.933 435.766 342.213 432.269C334.944 428.976 323.453 427.47 323.453 427.47C323.453 427.47 335.259 406.061 351.145 413.705Z" fill="white"/>
<path d="M350.1 415.281C344.508 412.59 337.794 414.943 335.103 420.535C333.651 423.553 333.671 426.896 334.872 429.758C337.415 430.436 340.009 431.27 342.214 432.269C344.353 433.238 346.588 434.612 348.701 436.09C351.517 435.175 353.969 433.158 355.354 430.279C358.045 424.687 355.693 417.972 350.1 415.281Z" fill="black"/>
<path d="M303.578 390.818C287.691 383.174 274.663 403.995 274.663 403.995C274.663 403.995 287.096 405.532 294.646 409.382C301.755 413.007 310.103 421.047 310.103 421.047C310.103 421.047 319.465 398.462 303.578 390.818Z" fill="white"/>
<path d="M302.999 392.618C308.591 395.309 310.942 402.023 308.252 407.616C306.8 410.633 304.175 412.704 301.189 413.551C299.072 411.987 296.802 410.481 294.646 409.381C292.553 408.314 290.085 407.425 287.611 406.697C286.57 403.925 286.615 400.75 288 397.872C290.691 392.279 297.406 389.927 302.999 392.618Z" fill="black"/>
<path d="M358.837 349.454C361.011 345.1 362.98 341.462 366.126 337.704C367.798 335.723 369.619 333.873 371.574 332.171C373.772 330.244 378.727 327.374 379.163 324.593C380.252 317.817 370.206 311.234 364.52 315.552C355.823 322.157 348.706 334.506 346.278 345.178C346.092 344.851 345.763 344.349 345.527 344.052C335.671 331.613 321.169 322.941 305.456 320.462C301.515 320.139 295.873 319.071 292.239 320.808C290.802 321.494 292.406 326.166 292.875 327.406C295.764 335.049 300.992 340.509 306.304 346.441C306.054 347.137 303.506 348.603 302.713 349.156C301.425 350.049 300.196 351.025 299.035 352.078C294.403 356.259 283.373 369.008 294.64 372.262C306.604 375.717 319.756 375.003 331.543 371.083C333.114 370.561 335.367 369.828 336.751 369.151L336.842 369.105C337.459 371.203 339.119 374.553 340.166 376.448C345.469 386.163 353.493 394.119 363.254 399.338C367.261 401.515 371.633 403.247 376.101 404.164C379.59 404.88 382.143 404.438 383.746 401.07C386.863 394.521 386.64 387.112 385.484 380.122C385.393 379.572 385.29 378.782 385.314 378.226L384.394 375.97C387.706 376.366 409.249 376.006 408.373 370.951C407.646 366.753 399.099 359.244 395.183 356.52C384.152 348.847 371.967 347.076 358.837 349.454Z" fill="#3A8A54"/>
<ellipse cx="13.2651" cy="10.53" rx="13.2651" ry="10.53" transform="matrix(-0.908649 -0.417562 -0.417562 0.908649 327.468 433.299)" fill="black"/>
<path d="M312.329 439.501C306.738 439.004 302.032 440.553 301.818 442.961C301.756 443.663 302.084 444.358 302.717 445.006C303.239 445.46 303.809 445.879 304.422 446.256C306.189 447.232 308.713 447.966 311.556 448.218C312.839 448.332 314.075 448.337 315.222 448.25C317.8 447.833 320.105 446.82 321.897 445.398C321.99 445.193 322.047 444.979 322.067 444.758C322.28 442.351 317.92 439.997 312.329 439.501Z" fill="#FF699F"/>
<path d="M168.795 68.2638L166.045 79.0883C164.74 85.8821 162.042 93.6186 159.905 100.231C159.148 102.575 158.106 105.857 157.129 108.061C159.968 107.365 162.573 105.964 165.739 105.167C178.071 102.061 191.639 102.104 203.309 107.602C203.594 107.737 203.957 108.116 204.151 108.36C204.21 109.325 203.009 110.007 202.216 110.457C189.765 117.534 178.658 124.966 168.361 135.013C177.954 133.222 192.296 137.286 200.164 142.868C201.858 144.07 205.621 146.856 206.297 148.809L206.229 149.23C205.04 150.037 195.738 151.702 193.403 152.316C180.298 155.688 167.918 161.418 156.866 169.225C155.257 170.35 152.213 172.4 150.801 173.693C147.564 171.026 144.806 167.902 141.385 165.453C126.37 154.707 107.005 147.887 88.4105 149.172C87.1782 149.257 85.2287 149.442 84.0468 149.336C81.1631 137.333 69.4053 125.047 58.7841 119.316C57.8611 118.818 56.0856 117.83 55.8234 116.818C56.1107 116.082 56.9236 115.615 57.6222 115.317C65.5553 111.925 73.8912 112.12 81.8168 114.929C80.525 111.995 79.5003 108.842 78.0872 105.827C75.4012 100.095 72.2128 95.1751 68.474 90.0591C67.5785 88.548 64.5084 85.7315 64.311 84.0965C64.1075 82.4109 70.9717 83.0779 71.7534 83.16C83.9351 84.4381 95.6849 91.4214 103.287 100.884C104.733 92.568 104.76 81.9401 104.323 73.4779C104.132 69.777 103.581 65.4504 103.604 61.8333L105.674 61.5769C108.381 63.1887 111.021 64.711 113.461 66.7221C122.282 73.9915 128.605 84.4099 131.739 95.3174C139.058 86.6097 158.531 72.8891 168.795 68.2638Z" fill="#3A8A54"/>
<path d="M93.9633 133.452C95.0382 133.563 96.8155 133.418 97.9386 133.355C114.885 132.409 132.435 138.851 145.977 148.817C149.062 151.088 151.536 153.965 154.451 156.432L154.552 156.595C155.378 157.895 156.415 158.767 157.238 159.892C158.386 161.463 159.691 163.691 160.66 165.408C169.491 181.062 170.303 202.172 166.309 219.666C160.538 244.948 148.072 279.027 125.563 294.108C113.523 302.125 97.8213 303.585 83.9842 300.165C64.3819 295.324 41.1772 284.582 29.5456 267.504C14.7734 245.816 21.846 216.063 31.6049 193.813C40.2839 174.026 52.1154 153.692 70.9373 141.923C76.5977 138.375 87.3272 133.696 93.9633 133.452Z" fill="#F8C527"/>
<path d="M53.1516 194.37C56.3481 197.065 58.9882 202.413 58.6253 206.571C57.8879 215.023 49.4716 218.254 42.3382 214.723C40.86 213.992 39.7675 213.175 38.4416 212.21C25.3738 199.667 38.5937 182.145 53.1516 194.37Z" fill="#F2831F"/>
<path d="M135.397 185.956C146.186 189.82 151.567 200.354 149.243 211.457C147.889 217.837 144.054 223.416 138.583 226.966C133.159 230.497 127.76 231.113 121.551 229.815C117.519 228.856 113.274 225.726 111.069 222.248C100.076 204.905 114.706 181.677 135.397 185.956Z" fill="#FEFEFE"/>
<path d="M127.446 197.019C133.276 198.444 136.835 204.337 135.385 210.16C133.936 215.983 128.028 219.519 122.211 218.045C116.428 216.579 112.918 210.714 114.359 204.925C115.801 199.136 121.651 195.601 127.446 197.019Z" fill="black"/>
<path d="M85.8421 166.587C90.2881 168.053 94.0401 171.102 96.3836 175.154C99.4905 180.471 100.225 187.229 98.6582 193.151C96.9119 199.513 92.7246 204.927 87.0069 208.217C81.712 211.268 76.7217 211.598 70.942 210.038C66.6118 208.485 62.9204 205.537 60.4475 201.658C57.2938 196.67 56.3702 190.11 57.6865 184.393C59.0689 178.113 62.9189 172.653 68.3694 169.242C73.8711 165.821 79.6147 165.115 85.8421 166.587Z" fill="#FEFEFE"/>
<path d="M84.0427 179.964C87.8408 180.82 90.8863 183.65 92.0183 187.375C93.1505 191.101 92.1946 195.147 89.5152 197.972C86.8356 200.796 82.8455 201.964 79.0658 201.03C73.3045 199.607 69.7635 193.81 71.1282 188.034C72.4925 182.258 78.2533 178.658 84.0427 179.964Z" fill="black"/>
<path d="M85.7978 216.015C82.89 226.777 98.1236 234.282 102.725 222.796" stroke="black" stroke-width="3.90743" stroke-linecap="round"/>
<path d="M140.741 229.618C144.921 229.565 150.417 231.882 152.863 235.265C157.834 242.139 153.583 250.089 145.878 252.086C144.282 252.499 142.921 252.596 141.287 252.734C123.198 251.797 121.733 229.896 140.741 229.618Z" fill="#F2831F"/>
<path d="M76.5704 339.611C74.0042 332.741 71.4423 324.495 70.7809 317.21C70.3546 311.122 75.2076 307.484 80.8893 307.452C90.4046 307.399 88.6344 319.11 89.7134 325.452C90.1237 327.863 90.8263 331.953 90.817 334.262C98.8695 324.393 112.282 316.828 124.674 314.007C126.381 313.618 139.481 311.188 139.047 313.564C138.05 319.039 133.443 325.88 129.992 330.211C132.827 330.136 135.664 330.203 138.491 330.412C140.391 330.563 142.312 330.723 144.193 331.025C148.041 331.644 163.947 334.806 166.008 337.315C166.235 337.591 166.336 337.815 166.263 338.182C165.829 340.348 160.001 343.755 158.174 344.77C161.362 346.953 164.613 348.859 167.569 351.385C179.781 361.821 186.43 376.964 189.31 392.496C194.913 422.726 181.889 467.544 164.607 492.643C158.008 502.225 148.683 510.469 136.915 512.66C123.553 515.146 110.775 510.115 99.2146 503.927C94.2158 501.25 89.4349 498.401 84.7642 495.191C60.3691 478.416 33.0482 451.23 27.5123 421.036C25.5064 410.095 26.5748 398.279 30.7905 387.965C31.3637 386.563 31.9596 384.629 32.8121 383.412C32.8773 383.319 32.9463 383.229 33.0188 383.141C32.3759 382.985 28.5429 383.198 27.4124 383.021C25.445 382.714 20.9629 382.702 19.604 381.143C19.4718 379.91 23.0825 376.272 24.0741 375.292C28.9889 370.433 34.1804 365.814 39.8678 361.869C41.5048 360.734 43.2219 359.392 45.0214 358.538C39.1492 357.063 30.498 354.619 26.1469 350.305C27.1584 348.551 29.1664 347.143 30.8775 346.072C45.697 336.804 60.0431 336.003 76.5704 339.611Z" fill="#D94C4B"/>
<path d="M76.5704 339.611C74.0042 332.741 71.4423 324.495 70.7809 317.21C70.3546 311.122 75.2076 307.484 80.8894 307.452C90.4046 307.399 88.6345 319.11 89.7134 325.452C90.1237 327.863 90.8263 331.953 90.817 334.262C98.8695 324.393 112.282 316.828 124.674 314.007C126.381 313.618 139.481 311.188 139.047 313.564C138.05 319.039 133.443 325.88 129.992 330.211C132.827 330.136 135.664 330.203 138.491 330.412C140.391 330.563 142.312 330.723 144.193 331.025C148.041 331.644 163.947 334.806 166.008 337.315C166.235 337.591 166.336 337.815 166.263 338.182C165.829 340.348 160.001 343.755 158.174 344.77C147.09 351.101 133.671 353.666 121.027 352.98C117.958 352.814 114.111 352.478 111.119 351.799C116.08 358.923 118.647 367.539 117.271 376.212C116.559 380.701 114.544 380.277 110.724 379.527C99.284 377.28 87.5496 371.2 80.058 362.189C70.5126 371.895 58.3244 378.591 45.0074 381.448C42.7008 381.936 40.3725 382.315 38.0302 382.583C36.7246 382.731 34.2043 382.914 33.0188 383.141C32.3759 382.985 28.5429 383.198 27.4124 383.021C25.445 382.714 20.9629 382.702 19.6041 381.143C19.4718 379.91 23.0825 376.272 24.0741 375.291C28.9889 370.433 34.1804 365.814 39.8678 361.869C41.5048 360.734 43.222 359.392 45.0214 358.537C39.1492 357.063 30.498 354.619 26.1469 350.305C27.1584 348.55 29.1665 347.142 30.8775 346.072C45.697 336.804 60.0431 336.003 76.5704 339.611Z" fill="#3A8A54"/>
<path d="M69.1422 428.491C71.3326 427.816 73.5356 427.184 75.7499 426.593C81.9347 424.646 89.0176 422.397 95.2393 420.686C96.1027 420.258 100.462 419.094 101.577 418.781C101.852 419.618 102.176 420.58 102.384 421.428C103.513 425.956 102.77 430.75 100.323 434.73C97.9902 438.522 94.3221 441.067 90.0001 442.092C85.559 443.178 80.8688 442.422 77.0003 439.996C72.6507 437.305 70.2886 433.372 69.1422 428.491Z" fill="#FEFEFE"/>
<path d="M75.7499 426.593C81.9347 424.646 89.0176 422.397 95.2393 420.686C97.816 424.927 97.8395 428.83 94.5042 432.662C90.6684 437.069 82.9477 437.837 78.5873 433.793C76.2599 431.634 75.8572 429.605 75.7499 426.593Z" fill="black"/>
<path d="M122.522 412.482C123.633 412.1 128.296 410.445 129.063 410.667C129.868 409.956 147.945 404.739 148.203 404.898L148.319 404.661C149.293 404.221 153.176 403.174 154.369 402.835C154.528 403.298 154.676 403.764 154.811 404.235C156.202 409.191 156.005 413.679 153.404 418.239C151.283 422.008 147.729 424.765 143.548 425.889C139.281 427.086 134.712 426.511 130.88 424.295C126.121 421.561 123.887 417.568 122.522 412.482Z" fill="#FEFEFE"/>
<path d="M129.063 410.667C129.868 409.956 147.945 404.739 148.203 404.898C150.806 409.236 150.434 413.772 146.681 417.299C144.499 419.344 141.593 420.442 138.603 420.35C132.999 420.169 128.82 416.522 129.063 410.667Z" fill="black"/>
<path d="M106.13 433.548C108.699 432.696 108.488 434.662 109.837 436.263C110.726 437.318 111.943 438.33 113.195 438.917C115.368 439.931 117.857 440.038 120.112 439.213C123.584 437.956 125.638 434.739 125.745 431.126C125.786 429.724 125.03 427.559 126.838 427.068C128.546 427.339 128.681 429.237 128.745 430.554C128.818 432.361 128.475 434.161 127.744 435.817C123.488 445.376 110.031 444.767 105.932 435.508C105.6 434.759 105.801 434.227 106.13 433.548Z" fill="black"/>
<path d="M53.7115 396.279L53.8652 396.239C59.7841 394.727 59.9286 403.903 57.8044 407.365C56.1255 407.629 54.3761 405.863 53.5318 404.581C51.6395 401.709 50.3157 398.58 53.7115 396.279Z" fill="#F1C850"/>
<path d="M147.709 367.928C147.825 367.89 147.943 367.854 148.061 367.821C153.787 366.196 154.083 375.372 151.938 378.934C149.13 379.393 145.311 373.255 145.88 370.697C146.215 369.189 146.529 368.853 147.709 367.928Z" fill="#F1C850"/>
<path d="M99.5754 382.452C105.586 380.691 105.797 389.928 103.647 393.54C100.641 393.804 94.471 385.672 99.5754 382.452Z" fill="#F1C850"/>
<path d="M47.3183 426.959C53.4232 424.754 54.0574 433.918 51.8815 437.59C50.5742 438.085 49.2404 437.124 48.4547 436.131C46.1981 433.281 44.0313 429.89 47.3183 426.959Z" fill="#F1C850"/>
<path d="M169.166 390.179C169.321 390.12 169.477 390.064 169.635 390.012C175.353 388.138 175.77 397.103 173.881 400.638C172.669 401.395 171.339 400.432 170.53 399.507C168.262 396.913 166.082 393.059 169.166 390.179Z" fill="#F1C850"/>
<path d="M101.519 477.927C107.471 475.743 108.275 484.963 106.139 488.501C104.741 489.099 103.606 488.278 102.702 487.182C100.455 484.455 98.2837 480.79 101.519 477.927Z" fill="#F1C850"/>
<path d="M72.6575 462.091C78.6347 459.978 79.1692 469.049 77.1455 472.664C75.6909 473.206 74.5538 472.392 73.6365 471.257C71.3323 468.407 69.3063 464.998 72.6575 462.091Z" fill="#F1C850"/>
<path d="M132.711 489.916C139.023 487.512 139.315 496.271 137.575 500.21C135.1 502.347 130.774 494.976 131.234 492.775C131.576 491.141 131.398 491.105 132.711 489.916Z" fill="#F1C850"/>
<path d="M152.086 462.647C158.377 460.538 158.174 469.427 156.703 473.236C155.142 473.798 153.918 472.97 152.948 471.741C150.782 468.996 148.925 465.372 152.086 462.647Z" fill="#F1C850"/>
<path d="M167.89 433.349C173.98 431.302 174.191 440.127 172.458 443.869C171.07 444.555 169.701 443.554 168.872 442.464C166.715 439.627 164.583 436.185 167.89 433.349Z" fill="#F1C850"/>
<path d="M134.43 392.092C125.479 394.808 120.155 404.482 122.157 414.038L155.714 403.855C152.689 394.61 143.381 389.375 134.43 392.092Z" fill="#D43030"/>
<path d="M80.7771 408.31C71.8262 411.027 66.503 420.701 68.5041 430.256L102.061 420.073C99.0368 410.829 89.728 405.594 80.7771 408.31Z" fill="#D43030"/>
<path d="M186.035 243.853C184.436 243.554 197.492 227.306 197.492 227.306C198.983 225.476 205.303 217.655 205.303 217.655L214.639 210.3L233.243 199.084C235.045 197.889 239.105 196.471 241.2 195.661C271.06 184.115 314.087 184.968 334.974 217.185C342.635 229.003 345.925 243.643 343.131 257.17C336.824 286.809 310.884 305.319 285.709 315.822C264.691 324.589 243.923 328.736 220.931 322.855C192.701 315.634 174.86 291.143 180.221 260.817C180.941 256.746 183.848 247.413 186.035 243.853Z" fill="#FF942A"/>
<path d="M231.02 287.129C233.905 285.449 238.569 284.629 241.503 285.632C247.467 287.671 247.416 293.973 242.791 298.175C241.833 299.045 240.923 299.639 239.838 300.363C226.928 306.955 217.916 294.79 231.02 287.129Z" fill="#F2831F"/>
<path d="M310.259 248.259C324.362 242.402 329.515 256.382 316.446 262.432C302.692 268.231 295.911 254.963 310.259 248.259Z" fill="#F2831F"/>
<path d="M246.754 263.439C251.178 261.787 249.546 267.149 248.694 269.243C246.67 274.152 242.785 278.01 237.903 279.962C232.379 282.221 227.495 281.915 222.058 279.558C220.711 278.915 219.055 278.03 219.212 276.261C220.564 274.014 223.404 276.18 225.107 276.834C232.539 279.687 241.469 275.86 244.859 268.731C245.599 267.175 245.817 265.232 246.662 263.612L246.754 263.439Z" fill="#141212"/>
<path d="M303.234 233.159C307.366 232.458 306.098 237.363 305.274 239.662C301.545 250.064 290.623 254.502 280.531 250.747C279.152 250.154 277.481 248.979 278.269 247.259C280.077 245.857 283.393 248.121 285.698 248.393C292.586 249.205 299.76 245.198 301.833 238.343C302.236 237.008 302.406 234.148 303.234 233.159Z" fill="#141212"/>
<path d="M277.694 261.492C281.068 260.365 280.874 263.927 280.165 266.084C279.047 269.435 276.658 272.181 273.521 273.719C269.698 275.583 266.288 275.643 262.31 274.23C261.826 274.034 260.801 273.566 260.44 273.222C259.897 272.697 259.563 271.99 259.501 271.236C259.733 270.707 259.697 270.609 260.276 270.335C261.839 269.538 262.864 270.716 264.277 271.153C267.992 272.302 272.037 271.278 274.623 268.349C276.426 266.306 276.797 263.955 277.694 261.492Z" fill="#141212"/>
<path d="M185.536 250.439C183.756 250.156 174.02 255.412 171.988 253.938C170.879 252.283 172.394 245.67 172.811 243.276C175.678 226.835 182.975 213.899 196.67 204.395C204.996 198.616 218.512 194.518 228.595 196.541L228.671 196.272C227.48 193.977 227.25 191.503 226.541 189.129C225.603 185.99 225.235 183.932 228.42 182.162C229.501 181.368 233.827 180.573 234.247 182.596C235.634 189.275 236.248 195.023 239.349 201.367C239.763 202.488 240.498 204.484 241.129 205.498C243.169 208.775 238.734 211.784 235.931 210.652C234.672 210.086 233.408 205.428 232.005 205.056C230.602 205.78 229.889 206.135 229.448 207.708C228.508 211.066 227.703 214.484 226.386 217.705C220.366 232.419 206.626 241.556 192.682 247.585C190.951 248.333 186.933 249.528 185.536 250.439Z" fill="#3A8A54"/>
</svg>
